<svg width="61" height="61" viewBox="0 0 61 61" fill="none" xmlns="http://www.w3.org/2000/svg">
<g clip-path="url(#clip0_1755_12)">
<mask id="mask0_1755_12" style="mask-type:luminance" maskUnits="userSpaceOnUse" x="0" y="0" width="61" height="61">
<path d="M60.8799 0.179199H0.879883V60.1792H60.8799V0.179199Z" fill="white"/>
</mask>
<g mask="url(#mask0_1755_12)">
<path d="M30.8799 16.4292C32.2606 16.4292 33.3799 17.5485 33.3799 18.9292V33.9292C33.3799 35.3099 32.2606 36.4292 30.8799 36.4292C29.4991 36.4292 28.3799 35.3099 28.3799 33.9292V18.9292C28.3799 17.5485 29.4991 16.4292 30.8799 16.4292Z" fill="black"/>
<path d="M30.8799 46.4292C32.9509 46.4292 34.6299 44.7502 34.6299 42.6792C34.6299 40.6082 32.9509 38.9292 30.8799 38.9292C28.8089 38.9292 27.1299 40.6082 27.1299 42.6792C27.1299 44.7502 28.8089 46.4292 30.8799 46.4292Z" fill="black"/>
<path fill-rule="evenodd" clip-rule="evenodd" d="M25.4465 5.75175C27.8644 1.65502 33.8956 1.65501 36.3136 5.75175L60.0296 45.9352C62.5244 50.1625 59.2894 55.1792 54.5961 55.1792H7.16393C2.47073 55.1792 -0.764357 50.1625 1.73042 45.9352L25.4465 5.75175ZM32.0076 8.29313C31.5244 7.47455 30.2356 7.47455 29.7524 8.29313L6.03641 48.4767C5.65248 49.1272 6.05493 50.1792 7.16393 50.1792H54.5961C55.7051 50.1792 56.1076 49.1272 55.7236 48.4767L32.0076 8.29313Z" fill="black"/>
</g>
</g>
<defs>
<clipPath id="clip0_1755_12">
<rect width="60" height="60" fill="white" transform="translate(0.879883 0.179199)"/>
</clipPath>
</defs>
</svg>
