<svg width="100" height="100" viewBox="0 0 100 100" fill="none" xmlns="http://www.w3.org/2000/svg">
<circle cx="50" cy="50" r="50" fill="#D9D9D9"/>
<g clip-path="url(#clip0_1736_23)">
<path fill-rule="evenodd" clip-rule="evenodd" d="M50 54.8C59.084 54.8 66.6992 60.1136 68.6816 69.2H31.3184C33.3008 60.1136 40.916 54.8 50 54.8ZM40.4 40.4C40.4 35.1056 44.7056 30.8 50 30.8C55.2944 30.8 59.6 35.1056 59.6 40.4C59.6 45.6944 55.2944 50 50 50C44.7056 50 40.4 45.6944 40.4 40.4ZM59.0192 51.6151C62.2976 48.9775 64.4 44.936 64.4 40.4C64.4 32.4464 57.9536 26 50 26C42.0464 26 35.6 32.4464 35.6 40.4C35.6 44.936 37.7024 48.9775 40.9808 51.6151C32.1992 54.9151 26 63.068 26 74H74C74 63.068 67.8008 54.9151 59.0192 51.6151Z" fill="white"/>
</g>
<defs>
<clipPath id="clip0_1736_23">
<rect width="48" height="48" fill="white" transform="translate(26 26)"/>
</clipPath>
</defs>
</svg>
