<svg width="12" height="7" viewBox="0 0 30 21" fill="none" xmlns="http://www.w3.org/2000/svg">
<path d="M11.3391 20.1404C10.9121 20.14 10.5026 19.9707 10.2001 19.6694L0.474119 9.95937C0.171109 9.65716 0.000564006 9.24695 1.39641e-06 8.81899C-0.000561213 8.39104 0.168902 7.9804 0.471117 7.67739C0.773331 7.37438 1.18354 7.20383 1.6115 7.20327C2.03946 7.20271 2.45011 7.37216 2.75312 7.67437L11.3221 16.2274L26.5551 0.508386C26.7018 0.352402 26.878 0.227154 27.0736 0.139947C27.2691 0.0527398 27.4801 0.00530902 27.6941 0.000420714C27.9082 -0.00446759 28.121 0.0332844 28.3204 0.111474C28.5197 0.189664 28.7015 0.306739 28.8551 0.455865C29.0087 0.604991 29.1312 0.783193 29.2153 0.980096C29.2994 1.177 29.3434 1.38867 29.3449 1.60278C29.3464 1.81688 29.3053 2.02914 29.2239 2.2272C29.1426 2.42525 29.0227 2.60512 28.8711 2.75637L12.4971 19.6494C12.3484 19.8034 12.1705 19.9262 11.9737 20.0106C11.7769 20.0949 11.5652 20.139 11.3511 20.1404H11.3391Z" fill="white"/>
</svg>
