<svg width="61" height="61" viewBox="0 0 61 61" fill="none" xmlns="http://www.w3.org/2000/svg">
<path d="M40.0356 32.6602L48.3811 22.6455C49.0679 21.8214 49.4114 21.4093 49.6556 20.947C49.8724 20.5369 50.0311 20.0986 50.1271 19.6447C50.2353 19.1331 50.2354 18.5967 50.2354 17.524V15.9204C50.2354 13.1201 50.2354 11.72 49.6904 10.6505C49.2111 9.70964 48.4461 8.94473 47.5054 8.46538C46.4359 7.92041 45.0356 7.92041 42.2353 7.92041H18.2354C15.4351 7.92041 14.035 7.92041 12.9654 8.46538C12.0246 8.94473 11.2597 9.70964 10.7803 10.6505C10.2354 11.72 10.2354 13.1201 10.2354 15.9204V17.524C10.2354 18.5967 10.2354 19.1331 10.3436 19.6447C10.4396 20.0986 10.5982 20.5369 10.8151 20.947C11.0595 21.4093 11.4029 21.8214 12.0896 22.6455L20.4352 32.6602M33.7376 28.4177L48.6524 9.27011M26.7331 28.4177L11.8339 9.25576M16.6272 15.4204H43.8616M42.7354 40.4204C42.7354 47.3239 37.1389 52.9204 30.2354 52.9204C23.3318 52.9204 17.7354 47.3239 17.7354 40.4204C17.7354 33.5169 23.3318 27.9204 30.2354 27.9204C37.1389 27.9204 42.7354 33.5169 42.7354 40.4204Z" stroke="black" stroke-width="5" stroke-linejoin="round"/>
<circle cx="30.5" cy="40.5" r="10.5" fill="#895334"/>
</svg>
