<svg width="60" height="61" viewBox="0 0 60 61" fill="none" xmlns="http://www.w3.org/2000/svg">
<path d="M39.8003 32.6602L48.1458 22.6455C48.8325 21.8214 49.176 21.4093 49.4203 20.947C49.637 20.5369 49.7957 20.0986 49.8917 19.6447C50 19.1331 50 18.5967 50 17.524V15.9204C50 13.1201 50 11.72 49.455 10.6505C48.9757 9.70964 48.2108 8.94473 47.27 8.46538C46.2005 7.92041 44.8002 7.92041 42 7.92041H18C15.1997 7.92041 13.7996 7.92041 12.7301 8.46538C11.7892 8.94473 11.0243 9.70964 10.545 10.6505C10 11.72 10 13.1201 10 15.9204V17.524C10 18.5967 10 19.1331 10.1082 19.6447C10.2042 20.0986 10.3629 20.5369 10.5797 20.947C10.8241 21.4093 11.1675 21.8214 11.8542 22.6455L20.1999 32.6602M33.5022 28.4177L48.417 9.27011M26.4978 28.4177L11.5985 9.25576M16.3918 15.4204H43.6263M42.5 40.4204C42.5 47.3239 36.9035 52.9204 30 52.9204C23.0964 52.9204 17.5 47.3239 17.5 40.4204C17.5 33.5169 23.0964 27.9204 30 27.9204C36.9035 27.9204 42.5 33.5169 42.5 40.4204Z" stroke="black" stroke-width="5" stroke-linejoin="round"/>
<circle cx="29.5" cy="40.5" r="10.5" fill="#B0B0B0"/>
</svg>
