<svg width="60" height="60" viewBox="0 0 60 60" fill="none" xmlns="http://www.w3.org/2000/svg">
<path d="M39.8003 32.2397L48.1458 22.2251C48.8325 21.401 49.176 20.9889 49.4203 20.5266C49.637 20.1165 49.7957 19.6782 49.8917 19.2243C50 18.7127 50 18.1763 50 17.1036V15.5C50 12.6997 50 11.2996 49.455 10.2301C48.9757 9.28923 48.2108 8.52432 47.27 8.04497C46.2005 7.5 44.8002 7.5 42 7.5H18C15.1997 7.5 13.7996 7.5 12.7301 8.04497C11.7892 8.52432 11.0243 9.28923 10.545 10.2301C10 11.2996 10 12.6997 10 15.5V17.1036C10 18.1763 10 18.7127 10.1082 19.2243C10.2042 19.6782 10.3629 20.1165 10.5797 20.5266C10.8241 20.9889 11.1675 21.401 11.8542 22.2251L20.1999 32.2397M33.5022 27.9973L48.417 8.8497M26.4978 27.9973L11.5985 8.83535M16.3918 15H43.6263M42.5 40C42.5 46.9035 36.9035 52.5 30 52.5C23.0964 52.5 17.5 46.9035 17.5 40C17.5 33.0965 23.0964 27.5 30 27.5C36.9035 27.5 42.5 33.0965 42.5 40Z" stroke="black" stroke-width="5" stroke-linejoin="round"/>
<ellipse cx="30" cy="40.5" rx="11" ry="10.5" fill="#D0BB00"/>
</svg>
