<svg width="60" height="60" viewBox="0 0 60 60" fill="none" xmlns="http://www.w3.org/2000/svg">
<path fill-rule="evenodd" clip-rule="evenodd" d="M30.0005 6.875C21.371 6.875 14.3755 13.8705 14.3755 22.5C14.3755 31.1295 21.371 38.125 30.0005 38.125C38.63 38.125 45.6255 31.1295 45.6255 22.5C45.6255 13.8705 38.63 6.875 30.0005 6.875ZM10.6255 22.5C10.6255 11.7995 19.3 3.125 30.0005 3.125C40.701 3.125 49.3755 11.7995 49.3755 22.5C49.3755 24.8525 48.9563 27.107 48.1883 29.193L53.9065 35.1135C54.5498 35.7795 55.0858 36.3345 55.486 36.7968C55.8805 37.2523 56.2848 37.773 56.5235 38.3783C57.357 40.4903 56.6865 42.9897 54.676 44.2207C54.098 44.5745 53.4395 44.7212 52.8733 44.816C52.2945 44.913 51.559 44.9908 50.6913 45.0825L50.633 45.0887C49.485 45.21 49.267 45.2488 49.1188 45.3055C48.6735 45.4763 48.3078 45.8398 48.1268 46.3465C48.063 46.5248 48.024 46.779 47.9078 47.9577L47.9023 48.0132C47.8133 48.916 47.7385 49.6725 47.6458 50.2663C47.5555 50.8448 47.418 51.5025 47.088 52.0802C45.9148 54.135 43.4413 54.9057 41.2958 53.998C40.6918 53.7425 40.1805 53.3148 39.744 52.9093C39.2973 52.4945 38.7613 51.9395 38.1183 51.2738L38.0693 51.223L30.0005 42.7233L21.9206 51.2348L21.8827 51.2738C21.2397 51.9395 20.7038 52.4945 20.257 52.9093C19.8203 53.3148 19.3092 53.7425 18.7052 53.998C16.5598 54.9057 14.0863 54.135 12.9129 52.0802C12.5831 51.5025 12.4455 50.8448 12.3552 50.2663C12.2625 49.6725 12.1878 48.916 12.0988 48.0132L12.0933 47.9577C11.977 46.779 11.9381 46.5248 11.8743 46.3465C11.6932 45.8398 11.3274 45.4763 10.8822 45.3055C10.734 45.2488 10.5159 45.21 9.36801 45.0887L9.30981 45.0825C8.44193 44.9908 7.70646 44.913 7.12758 44.816C6.56156 44.7212 5.90306 44.5745 5.32496 44.2207C3.31448 42.9897 2.64393 40.4903 3.47746 38.3783C3.71628 37.773 4.12056 37.2523 4.51496 36.7968C4.91533 36.3345 5.45123 35.7795 6.09466 35.1132L11.8126 29.193C11.0447 27.107 10.6255 24.8525 10.6255 22.5ZM13.5695 32.772L8.82931 37.68C8.13903 38.3945 7.67518 38.8757 7.34971 39.2517C7.04476 39.6037 6.97348 39.74 6.96601 39.7545C6.74031 40.3268 6.96443 40.8115 7.26198 41.009C7.28428 41.0163 7.41151 41.0615 7.74678 41.1175C8.19971 41.1933 8.82058 41.2598 9.76241 41.3595C9.82541 41.366 9.88791 41.3728 9.94991 41.3793C10.7977 41.4678 11.5537 41.547 12.2243 41.804C13.7218 42.378 14.8674 43.579 15.4054 45.084C15.6461 45.757 15.7203 46.5163 15.8068 47.402C15.8128 47.4638 15.819 47.5265 15.8252 47.5895C15.9212 48.5623 15.986 49.212 16.0603 49.6877C16.1239 50.095 16.1751 50.2255 16.1769 50.2335C16.3764 50.5692 16.7865 50.7355 17.2391 50.5463C17.2391 50.5463 17.3642 50.478 17.7056 50.161C18.0672 49.8252 18.5302 49.347 19.2175 48.6352L19.2232 48.6295L26.023 41.4663C20.7834 40.3733 16.3206 37.1635 13.5695 32.772ZM33.9778 41.4663C39.2175 40.3733 43.6803 37.1635 46.4315 32.772L51.1718 37.68C51.862 38.3945 52.3258 38.8757 52.6513 39.2517C52.9563 39.6037 53.0275 39.74 53.035 39.7545C53.2605 40.3268 53.0365 40.8115 52.739 41.009C52.7168 41.0163 52.5895 41.0615 52.2543 41.1175C51.8013 41.1933 51.1803 41.2598 50.2385 41.3595C50.1755 41.366 50.113 41.3728 50.051 41.3793C49.2033 41.4678 48.4473 41.547 47.7768 41.804C46.2793 42.378 45.1335 43.579 44.5955 45.084C44.355 45.757 44.2808 46.5163 44.1943 47.402C44.188 47.4638 44.182 47.5265 44.1758 47.5895C44.0798 48.5623 44.015 49.212 43.9408 49.6877C43.877 50.095 43.826 50.2255 43.824 50.2335C43.6238 50.5705 43.2115 50.7365 42.757 50.5442L42.762 50.5465C42.762 50.5465 42.6368 50.478 42.2955 50.161C41.9338 49.8252 41.4708 49.347 40.7835 48.6352L40.7778 48.6295L33.9778 41.4663ZM30.0005 17.5862C29.8553 17.8378 29.6935 18.1276 29.503 18.4692L29.2573 18.9101C29.24 18.9413 29.2213 18.9752 29.2015 19.0117C29.0053 19.3707 28.68 19.9653 28.138 20.3768C27.5845 20.7969 26.9188 20.9415 26.5295 21.026C26.4905 21.0345 26.4543 21.0423 26.4213 21.0498L25.944 21.1578C25.506 21.2569 25.1493 21.3377 24.8442 21.4144C25.0425 21.6586 25.3003 21.9618 25.6355 22.3538L25.961 22.7343C25.984 22.7613 26.009 22.7902 26.0358 22.821C26.3058 23.1318 26.7413 23.6337 26.9428 24.2815C27.142 24.9217 27.0733 25.581 27.03 25.997C27.0255 26.0385 27.0215 26.0775 27.018 26.114L26.9688 26.6217C26.9233 27.0922 26.8878 27.468 26.864 27.7735C27.1245 27.6587 27.421 27.5223 27.773 27.3603L28.22 27.1545C28.2508 27.1403 28.2845 27.1245 28.3208 27.1073C28.6795 26.938 29.3038 26.6438 30.0005 26.6438C30.6973 26.6438 31.3213 26.938 31.68 27.1073C31.7165 27.1245 31.7503 27.1403 31.781 27.1545L32.228 27.3603C32.58 27.5223 32.8763 27.6587 33.1368 27.7735C33.1133 27.468 33.0778 27.0922 33.0323 26.6217L32.983 26.114C32.9795 26.0775 32.9755 26.0385 32.971 25.997C32.9278 25.581 32.859 24.9217 33.0583 24.2815C33.2595 23.6337 33.6953 23.1318 33.965 22.821C33.9918 22.7902 34.017 22.7613 34.04 22.7343L34.3655 22.3538C34.7005 21.9619 34.9583 21.6586 35.1568 21.4144C34.8518 21.3377 34.495 21.2569 34.057 21.1578L33.5798 21.0498C33.5468 21.0423 33.5105 21.0345 33.4715 21.026C33.0823 20.9415 32.4165 20.7969 31.863 20.3768C31.321 19.9653 30.9958 19.3707 30.7995 19.0117C30.7795 18.9753 30.761 18.9413 30.7438 18.9101L30.4978 18.4692C30.3075 18.1276 30.1458 17.8378 30.0005 17.5862ZM27.5343 14.4991C27.9648 13.937 28.7463 13.125 30.0005 13.125C31.2548 13.125 32.0363 13.937 32.4668 14.4991C32.8775 15.0355 33.2913 15.7781 33.7155 16.5394C33.7348 16.574 33.754 16.6087 33.7733 16.6434L34.019 17.0842C34.076 17.1865 34.121 17.2669 34.1603 17.3357C34.2285 17.3518 34.308 17.3698 34.4073 17.3923L34.8845 17.5003C34.9238 17.5091 34.9628 17.5179 35.0018 17.5268C35.8215 17.712 36.6358 17.896 37.261 18.1424C37.9515 18.4144 38.8873 18.9442 39.2478 20.104C39.6023 21.2433 39.155 22.2084 38.7645 22.8287C38.4033 23.4027 37.854 24.0447 37.2918 24.7019C37.2663 24.7316 37.2408 24.7613 37.2155 24.791L36.89 25.1715C36.8038 25.2722 36.7388 25.3485 36.684 25.4142C36.6915 25.505 36.7018 25.6108 36.7155 25.7523L36.7648 26.26C36.7685 26.2987 36.7723 26.3372 36.776 26.376C36.8615 27.2557 36.944 28.106 36.9138 28.7862C36.882 29.4992 36.7108 30.5788 35.7428 31.3135C34.7443 32.0715 33.6415 31.9065 32.9423 31.706C32.2978 31.5215 31.5365 31.1705 30.7698 30.8172C30.733 30.8002 30.6963 30.7835 30.6595 30.7665L30.2128 30.5608C30.129 30.5223 30.0603 30.4908 30.0005 30.4635C29.9405 30.4908 29.872 30.5223 29.7883 30.5608L29.3415 30.7665C29.3048 30.7835 29.268 30.8002 29.2313 30.8172C28.4645 31.1705 27.703 31.5215 27.0588 31.706C26.3595 31.9065 25.2568 32.0715 24.2581 31.3135C23.2902 30.5788 23.1191 29.4992 23.0873 28.7862C23.057 28.106 23.1396 27.2557 23.225 26.376C23.2288 26.3372 23.2325 26.2987 23.2363 26.26L23.2855 25.7523C23.2992 25.6108 23.3094 25.505 23.3169 25.4142C23.2621 25.3485 23.1971 25.2722 23.1109 25.1715L22.7856 24.791C22.7601 24.7613 22.7347 24.7316 22.7093 24.7019C22.147 24.0447 21.5978 23.4027 21.2364 22.8287C20.8459 22.2084 20.3988 21.2433 20.7531 20.104C21.1138 18.9442 22.0495 18.4144 22.7399 18.1424C23.3651 17.896 24.1796 17.712 24.9991 17.5268C25.0383 17.5179 25.0773 17.5091 25.1163 17.5003L25.5935 17.3923C25.693 17.3698 25.7725 17.3518 25.8408 17.3357C25.88 17.2669 25.9248 17.1865 25.9818 17.0842L26.2275 16.6434C26.247 16.6087 26.2663 16.574 26.2855 16.5394C26.7098 15.7781 27.1235 15.0355 27.5343 14.4991Z" fill="#1C274C"/>
</svg>
