<svg width="60" height="60" viewBox="0 0 60 60" fill="none" xmlns="http://www.w3.org/2000/svg">
<path fill-rule="evenodd" clip-rule="evenodd" d="M0 25C0 18.0964 5.59645 12.5 12.5 12.5H47.5C54.4035 12.5 60 18.0964 60 25V35C60 41.9035 54.4035 47.5 47.5 47.5H12.5C5.59645 47.5 0 41.9035 0 35V25ZM12.5 17.5C8.35788 17.5 5 20.8579 5 25V35C5 39.1423 8.35788 42.5 12.5 42.5H47.5C51.6423 42.5 55 39.1423 55 35V25C55 20.8579 51.6423 17.5 47.5 17.5H12.5ZM25 27.5C25 24.7386 27.2385 22.5 30 22.5C32.7615 22.5 35 24.7386 35 27.5V32.5C35 35.2615 32.7615 37.5 30 37.5C27.2385 37.5 25 35.2615 25 32.5V27.5ZM15 22.5C12.2386 22.5 10 24.7386 10 27.5V32.5C10 35.2615 12.2386 37.5 15 37.5C17.7614 37.5 20 35.2615 20 32.5V27.5C20 24.7386 17.7614 22.5 15 22.5Z" fill="black"/>
</svg>
