<svg width="60" height="60" viewBox="0 0 60 60" fill="none" xmlns="http://www.w3.org/2000/svg">
<path d="M30.0018 33.8425L31.4898 32.7017C31.1351 32.2387 30.5851 31.9675 30.0018 31.9675C29.4188 31.9675 28.8688 32.2387 28.5138 32.7017L30.0018 33.8425ZM22.2244 37.665L22.2302 35.79C22.217 35.79 22.2039 35.79 22.1907 35.7903L22.2244 37.665ZM21.1169 18.6075L21.3006 20.4735C21.9023 20.4143 22.4385 20.0685 22.7407 19.5449C23.043 19.0213 23.0743 18.3841 22.8247 17.8334L21.1169 18.6075ZM38.8868 18.6075L37.1791 17.8334C36.9296 18.3841 36.9608 19.0213 37.2631 19.5449C37.5653 20.0685 38.1016 20.4143 38.7033 20.4735L38.8868 18.6075ZM37.7793 37.665L37.8131 35.7903C37.8001 35.79 37.7868 35.79 37.7736 35.79L37.7793 37.665ZM31.8768 33.8425C31.8768 32.807 31.0376 31.9675 30.0018 31.9675C28.9663 31.9675 28.1268 32.807 28.1268 33.8425H31.8768ZM28.1268 52.665C28.1268 53.7005 28.9663 54.54 30.0018 54.54C31.0376 54.54 31.8768 53.7005 31.8768 52.665H28.1268ZM28.1268 33.8425C28.1268 34.878 28.9663 35.7175 30.0018 35.7175C31.0376 35.7175 31.8768 34.878 31.8768 33.8425H28.1268ZM31.8768 28.8775C31.8768 27.842 31.0376 27.0025 30.0018 27.0025C28.9663 27.0025 28.1268 27.842 28.1268 28.8775H31.8768ZM31.8768 21.415C31.8768 20.3795 31.0376 19.54 30.0018 19.54C28.9663 19.54 28.1268 20.3795 28.1268 21.415H31.8768ZM28.1268 23.915C28.1268 24.9505 28.9663 25.79 30.0018 25.79C31.0376 25.79 31.8768 24.9505 31.8768 23.915H28.1268ZM31.1268 25.415C31.9553 24.7937 32.1233 23.6184 31.5018 22.79C30.8806 21.9616 29.7053 21.7937 28.8768 22.415L31.1268 25.415ZM23.8769 26.165C23.0485 26.7862 22.8806 27.9615 23.5019 28.79C24.1232 29.6185 25.2986 29.7863 26.1268 29.165L23.8769 26.165ZM31.8768 23.915C31.8768 22.8795 31.0376 22.04 30.0018 22.04C28.9663 22.04 28.1268 22.8795 28.1268 23.915H31.8768ZM28.1268 28.8775C28.1268 29.913 28.9663 30.7525 30.0018 30.7525C31.0376 30.7525 31.8768 29.913 31.8768 28.8775H28.1268ZM30.7073 27.1403C29.7478 26.7508 28.6541 27.2127 28.2646 28.1722C27.8751 29.1317 28.3371 30.2253 29.2966 30.6148L30.7073 27.1403ZM35.5466 33.1522C36.5061 33.5417 37.5996 33.0797 37.9891 32.1202C38.3788 31.1607 37.9168 30.0673 36.9573 29.6778L35.5466 33.1522ZM28.5138 32.7017C27.0161 34.6552 24.6919 35.7975 22.2302 35.79L22.2186 39.54C25.8508 39.5512 29.2798 37.8658 31.4898 34.9833L28.5138 32.7017ZM22.1907 35.7903C18.0709 35.8643 14.6273 32.673 14.3883 28.5595L10.6446 28.777C11.0004 34.8998 16.126 39.6497 22.2581 39.5397L22.1907 35.7903ZM14.3883 28.5595C14.1492 24.4459 17.2 20.8772 21.3006 20.4735L20.9332 16.7415C14.8296 17.3424 10.2888 22.6543 10.6446 28.777L14.3883 28.5595ZM22.8247 17.8334C22.382 16.8567 22.1534 15.7966 22.1544 14.7242L18.4044 14.7208C18.4029 16.3283 18.7455 17.9175 19.4091 19.3816L22.8247 17.8334ZM22.1544 14.7242C22.1544 10.3901 25.6678 6.875 30.0018 6.875V3.125C23.5968 3.125 18.4044 8.31567 18.4044 14.7208L22.1544 14.7242ZM30.0018 6.875C34.3361 6.875 37.8493 10.3884 37.8493 14.7225H41.5993C41.5993 8.31737 36.4071 3.125 30.0018 3.125V6.875ZM37.8493 14.7225C37.8503 15.7949 37.6218 16.8567 37.1791 17.8334L40.5946 19.3816C41.2583 17.9175 41.6008 16.33 41.5993 14.7225H37.8493ZM38.7033 20.4735C42.8038 20.8772 45.8546 24.4459 45.6156 28.5595L49.3593 28.777C49.7151 22.6543 45.1741 17.3424 39.0706 16.7415L38.7033 20.4735ZM45.6156 28.5595C45.3766 32.673 41.9328 35.8643 37.8131 35.7903L37.7458 39.5397C43.8778 39.6497 49.0033 34.8998 49.3593 28.777L45.6156 28.5595ZM37.7736 35.79C35.3118 35.7975 32.9878 34.6552 31.4898 32.7017L28.5138 34.9833C30.7238 37.8658 34.1531 39.5512 37.7851 39.54L37.7736 35.79ZM28.1268 33.8425V52.665H31.8768V33.8425H28.1268ZM31.8768 33.8425V28.8775H28.1268V33.8425H31.8768ZM28.1268 21.415V23.915H31.8768V21.415H28.1268ZM28.8768 22.415L23.8769 26.165L26.1268 29.165L31.1268 25.415L28.8768 22.415ZM28.1268 23.915V28.8775H31.8768V23.915H28.1268ZM29.2966 30.6148L35.5466 33.1522L36.9573 29.6778L30.7073 27.1403L29.2966 30.6148Z" fill="black"/>
</svg>
